<?xml version="1.0" encoding="UTF-8" standalone="no"?>
<!-- Created with Inkscape (http://www.inkscape.org/) -->

<svg
   xmlns:dc="http://purl.org/dc/elements/1.1/"
   xmlns:cc="http://creativecommons.org/ns#"
   xmlns:rdf="http://www.w3.org/1999/02/22-rdf-syntax-ns#"
   xmlns:svg="http://www.w3.org/2000/svg"
   xmlns="http://www.w3.org/2000/svg"
   xmlns:sodipodi="http://sodipodi.sourceforge.net/DTD/sodipodi-0.dtd"
   xmlns:inkscape="http://www.inkscape.org/namespaces/inkscape"
   width="53.440369mm"
   height="8.8053331mm"
   viewBox="0 0 53.440369 8.8053331"
   version="1.1"
   id="svg879"
   inkscape:version="0.92.5 (2060ec1f9f, 2020-04-08)"
   sodipodi:docname="brand.svg"
   inkscape:export-filename="C:\Users\dell_\Desktop\project\teraomega\img\brand.png"
   inkscape:export-xdpi="99.812187"
   inkscape:export-ydpi="99.812187">
  <defs
     id="defs873" />
  <sodipodi:namedview
     id="base"
     pagecolor="#ffffff"
     bordercolor="#666666"
     borderopacity="1.0"
     inkscape:pageopacity="0.0"
     inkscape:pageshadow="2"
     inkscape:zoom="3.959798"
     inkscape:cx="102.23643"
     inkscape:cy="21.861269"
     inkscape:document-units="mm"
     inkscape:current-layer="layer1"
     showgrid="false"
     inkscape:window-width="1920"
     inkscape:window-height="1017"
     inkscape:window-x="-8"
     inkscape:window-y="-8"
     inkscape:window-maximized="1" />
  <metadata
     id="metadata876">
    <rdf:RDF>
      <cc:Work
         rdf:about="">
        <dc:format>image/svg+xml</dc:format>
        <dc:type
           rdf:resource="http://purl.org/dc/dcmitype/StillImage" />
        <dc:title />
      </cc:Work>
    </rdf:RDF>
  </metadata>
  <g
     inkscape:label="Layer 1"
     inkscape:groupmode="layer"
     id="layer1"
     transform="translate(109.11899,-140.6509)">
    <g
       aria-label="TeraOmega"
       style="font-style:normal;font-variant:normal;font-weight:normal;font-stretch:normal;font-size:10.58333302px;line-height:1.25;font-family:'Geometry Soft Pro';-inkscape-font-specification:'Geometry Soft Pro';letter-spacing:0px;word-spacing:0px;fill:#ffffff;fill-opacity:1;stroke:none;stroke-width:0.26458332"
       id="text825"
       transform="translate(-158.38125,67.447096)">
      <path
         d="m 51.632926,79.299809 c 0,0.370417 0.306917,0.677333 0.677334,0.677333 0.370416,0 0.677333,-0.306916 0.677333,-0.677333 v -4.741333 h 1.693333 c 0.370417,0 0.677334,-0.306917 0.677334,-0.677333 0,-0.370417 -0.306917,-0.677334 -0.677334,-0.677334 h -4.741333 c -0.370416,0 -0.677333,0.306917 -0.677333,0.677334 0,0.370416 0.306917,0.677333 0.677333,0.677333 h 1.693333 z"
         style="stroke-width:0.26458332;fill:#ffffff"
         id="path831"
         inkscape:connector-curvature="0" />
      <path
         d="m 57.632519,79.977142 c 0.370417,0 0.677333,-0.306916 0.677333,-0.677333 0,-0.370417 -0.306916,-0.677333 -0.677333,-0.677333 h -0.677333 c -0.508,0 -0.941917,-0.264584 -1.17475,-0.677334 h 3.20675 c 0.370416,0 0.677333,-0.306916 0.677333,-0.677333 0,-1.49225 -1.217083,-2.709333 -2.709333,-2.709333 -1.49225,0 -2.709334,1.217083 -2.709334,2.709333 0,1.49225 1.217084,2.709333 2.709334,2.709333 z m -0.677333,-4.064 c 0.497416,0 0.941916,0.275167 1.17475,0.677334 h -2.3495 c 0.232833,-0.402167 0.66675,-0.677334 1.17475,-0.677334 z"
         style="stroke-width:0.26458332;fill:#ffffff"
         id="path833"
         inkscape:connector-curvature="0" />
      <path
         d="m 60.182276,75.235809 c 0,0.306917 0.179916,0.5715 0.444499,0.6985 -0.232833,0.391583 -0.359833,0.846667 -0.359833,1.3335 v 2.032 c 0,0.370417 0.306917,0.677333 0.677333,0.677333 0.370417,0 0.677334,-0.306916 0.677334,-0.677333 v -2.032 c 0,-0.751417 0.60325,-1.354667 1.354666,-1.354667 0.370417,0 0.677334,-0.306916 0.677334,-0.677333 0,-0.370417 -0.306917,-0.677333 -0.677334,-0.677333 -0.486833,0 -0.941916,0.137583 -1.344083,0.359833 -0.116417,-0.264583 -0.381,-0.4445 -0.687917,-0.4445 -0.423333,0 -0.761999,0.338667 -0.761999,0.762 z"
         style="stroke-width:0.26458332;fill:#ffffff"
         id="path835"
         inkscape:connector-curvature="0" />
      <path
         d="m 63.56828,77.267809 c 0,1.49225 1.217083,2.709333 2.709333,2.709333 0.486834,0 0.941917,-0.127 1.3335,-0.359833 0.127,0.264583 0.391584,0.4445 0.6985,0.4445 0.423334,0 0.762,-0.338667 0.762,-0.762 0,-0.306917 -0.179916,-0.5715 -0.4445,-0.687917 0.22225,-0.402166 0.359834,-0.85725 0.359834,-1.344083 0,-1.49225 -1.217084,-2.709333 -2.709334,-2.709333 -1.49225,0 -2.709333,1.217083 -2.709333,2.709333 z m 1.354667,0 c 0,-0.751417 0.60325,-1.354667 1.354666,-1.354667 0.751417,0 1.354667,0.60325 1.354667,1.354667 0,0.751417 -0.60325,1.354667 -1.354667,1.354667 -0.751416,0 -1.354666,-0.60325 -1.354666,-1.354667 z"
         style="stroke-width:0.26458332;fill:#ffffff"
         id="path837"
         inkscape:connector-curvature="0" />
      <path
         d="m 69.500735,76.590476 c 0,1.87325 1.513417,3.386666 3.386667,3.386666 1.87325,0 3.386666,-1.513416 3.386666,-3.386666 0,-1.87325 -1.513416,-3.386667 -3.386666,-3.386667 -1.87325,0 -3.386667,1.513417 -3.386667,3.386667 z m 1.354667,0 c 0,-1.121834 0.910166,-2.032 2.032,-2.032 1.121833,0 2.032,0.910166 2.032,2.032 0,1.121833 -0.910167,2.032 -2.032,2.032 -1.121834,0 -2.032,-0.910167 -2.032,-2.032 z"
         style="stroke-width:0.26458332;fill:#ffffff"
         id="path839"
         inkscape:connector-curvature="0" />
      <path
         d="m 80.252078,79.299809 c 0,0.370417 0.306916,0.677333 0.677333,0.677333 0.370416,0 0.677333,-0.306916 0.677333,-0.677333 v -2.370667 c 0,-0.560916 0.455083,-1.016 1.016,-1.016 0.560917,0 1.016,0.455084 1.016,1.016 v 2.370667 c 0,0.370417 0.306917,0.677333 0.677333,0.677333 0.370417,0 0.677334,-0.306916 0.677334,-0.677333 v -2.370667 c 0,-1.312333 -1.058334,-2.370666 -2.370667,-2.370666 -0.66675,0 -1.27,0.275166 -1.693333,0.709083 -0.433917,-0.433917 -1.026583,-0.709083 -1.693333,-0.709083 -0.381,0 -0.740834,0.09525 -1.058334,0.254 -0.137583,-0.201084 -0.370416,-0.338667 -0.635,-0.338667 -0.423333,0 -0.762,0.338667 -0.762,0.762 0,0.264583 0.127,0.497417 0.328084,0.635 -0.15875,0.3175 -0.243417,0.677333 -0.243417,1.058333 v 2.370667 c 0,0.370417 0.306917,0.677333 0.677333,0.677333 0.370417,0 0.677334,-0.306916 0.677334,-0.677333 v -2.370667 c 0,-0.560916 0.455083,-1.016 1.016,-1.016 0.560916,0 1.016,0.455084 1.016,1.016 z"
         style="stroke-width:0.26458332;fill:#ffffff"
         id="path841"
         inkscape:connector-curvature="0" />
      <path
         d="m 88.803742,79.977142 c 0.370416,0 0.677333,-0.306916 0.677333,-0.677333 0,-0.370417 -0.306917,-0.677333 -0.677333,-0.677333 h -0.677334 c -0.508,0 -0.941916,-0.264584 -1.17475,-0.677334 h 3.20675 c 0.370417,0 0.677334,-0.306916 0.677334,-0.677333 0,-1.49225 -1.217084,-2.709333 -2.709334,-2.709333 -1.49225,0 -2.709333,1.217083 -2.709333,2.709333 0,1.49225 1.217083,2.709333 2.709333,2.709333 z m -0.677334,-4.064 c 0.497417,0 0.941917,0.275167 1.17475,0.677334 h -2.3495 c 0.232834,-0.402167 0.66675,-0.677334 1.17475,-0.677334 z"
         style="stroke-width:0.26458332;fill:#ffffff"
         id="path843"
         inkscape:connector-curvature="0" />
      <path
         d="m 93.893498,80.654476 c -0.34925,0 -0.687917,-0.127 -0.963083,-0.391584 -0.127,-0.127 -0.296334,-0.201083 -0.47625,-0.201083 -0.359833,0 -0.677333,0.3175 -0.677333,0.677333 0,0.179917 0.07408,0.34925 0.201083,0.47625 0.529166,0.529167 1.227666,0.79375 1.915583,0.79375 1.49225,0 2.709333,-1.217083 2.709333,-2.709333 v -2.032 c 0,-0.486833 -0.137583,-0.941917 -0.359833,-1.3335 0.264583,-0.127 0.4445,-0.391583 0.4445,-0.6985 0,-0.423333 -0.338667,-0.762 -0.762,-0.762 -0.306917,0 -0.5715,0.179917 -0.6985,0.4445 -0.391583,-0.22225 -0.846667,-0.359833 -1.3335,-0.359833 -1.49225,0 -2.709333,1.217083 -2.709333,2.709333 0,1.49225 1.217083,2.709333 2.709333,2.709333 0.47625,0 0.92075,-0.127 1.312333,-0.338666 -0.148166,0.582083 -0.677333,1.016 -1.312333,1.016 z m -1.354667,-3.386667 c 0,-0.751417 0.60325,-1.354667 1.354667,-1.354667 0.751417,0 1.354667,0.60325 1.354667,1.354667 0,0.751417 -0.60325,1.354667 -1.354667,1.354667 -0.751417,0 -1.354667,-0.60325 -1.354667,-1.354667 z"
         style="stroke-width:0.26458332;fill:#ffffff"
         id="path845"
         inkscape:connector-curvature="0" />
      <path
         d="m 97.199302,77.267809 c 0,1.49225 1.217083,2.709333 2.709333,2.709333 0.486835,0 0.941915,-0.127 1.333495,-0.359833 0.127,0.264583 0.39159,0.4445 0.6985,0.4445 0.42334,0 0.762,-0.338667 0.762,-0.762 0,-0.306917 -0.17991,-0.5715 -0.4445,-0.687917 0.22225,-0.402166 0.35984,-0.85725 0.35984,-1.344083 0,-1.49225 -1.21709,-2.709333 -2.709335,-2.709333 -1.49225,0 -2.709333,1.217083 -2.709333,2.709333 z m 1.354666,0 c 0,-0.751417 0.60325,-1.354667 1.354667,-1.354667 0.751415,0 1.354665,0.60325 1.354665,1.354667 0,0.751417 -0.60325,1.354667 -1.354665,1.354667 -0.751417,0 -1.354667,-0.60325 -1.354667,-1.354667 z"
         style="stroke-width:0.26458332;fill:#ffffff"
         id="path847"
         inkscape:connector-curvature="0" />
    </g>
  </g>
</svg>
