<?xml version="1.0" encoding="UTF-8" standalone="no"?>
<!-- Created with Inkscape (http://www.inkscape.org/) -->

<svg
   xmlns:dc="http://purl.org/dc/elements/1.1/"
   xmlns:cc="http://creativecommons.org/ns#"
   xmlns:rdf="http://www.w3.org/1999/02/22-rdf-syntax-ns#"
   xmlns:svg="http://www.w3.org/2000/svg"
   xmlns="http://www.w3.org/2000/svg"
   xmlns:sodipodi="http://sodipodi.sourceforge.net/DTD/sodipodi-0.dtd"
   xmlns:inkscape="http://www.inkscape.org/namespaces/inkscape"
   width="251.77983mm"
   height="250mm"
   viewBox="0 0 251.77983 250"
   version="1.1"
   id="svg8"
   inkscape:version="0.92.5 (2060ec1f9f, 2020-04-08)"
   sodipodi:docname="logo.svg"
   inkscape:export-filename="C:\Users\dell_\Desktop\project\teraomega\img\favicon.png"
   inkscape:export-xdpi="6.4564342"
   inkscape:export-ydpi="6.4564342">
  <defs
     id="defs2" />
  <sodipodi:namedview
     id="base"
     pagecolor="#ffffff"
     bordercolor="#666666"
     borderopacity="1.0"
     inkscape:pageopacity="0.0"
     inkscape:pageshadow="2"
     inkscape:zoom="0.35"
     inkscape:cx="-64.285714"
     inkscape:cy="560"
     inkscape:document-units="mm"
     inkscape:current-layer="layer1"
     showgrid="false"
     inkscape:window-width="1920"
     inkscape:window-height="1017"
     inkscape:window-x="-8"
     inkscape:window-y="-8"
     inkscape:window-maximized="1" />
  <metadata
     id="metadata5">
    <rdf:RDF>
      <cc:Work
         rdf:about="">
        <dc:format>image/svg+xml</dc:format>
        <dc:type
           rdf:resource="http://purl.org/dc/dcmitype/StillImage" />
        <dc:title></dc:title>
      </cc:Work>
    </rdf:RDF>
  </metadata>
  <g
     inkscape:label="Layer 1"
     inkscape:groupmode="layer"
     id="layer1"
     transform="translate(0,-47)">
    <path
       style="fill:#000000;fill-opacity:1;stroke:none;stroke-width:7.22903252;stroke-linejoin:round;stroke-miterlimit:4;stroke-dasharray:none;stroke-opacity:1"
       d="m 125.00013,71.99981 a 99.999902,100 0 0 0 -100.000104,100.0001 99.999902,100 0 0 0 13.50305,50.00005 H 25.000026 A 24.999975,24.999999 0 0 0 0,246.99997 24.999975,24.999999 0 0 0 25.000026,272 H 125.00013 a 25,25 0 0 1 -25.00003,-25.00003 25,25 0 0 1 25.00003,-25.00001 49.999952,50 0 0 1 -50.000056,-50.00005 49.999952,50 0 0 1 50.000056,-50.00005 49.999952,50 0 0 1 50.00004,50.00005 49.999952,50 0 0 1 -50.00004,50.00005 25,25 0 0 1 25.00002,25.00001 A 25,25 0 0 1 125.00013,272 h 100.00009 a 24.999975,24.999999 0 0 0 25.00003,-25.00003 24.999975,24.999999 0 0 0 -25.00003,-25.00001 H 211.45945 A 99.999902,100 0 0 0 225.00022,171.99991 99.999902,100 0 0 0 125.00013,71.99981 Z"
       id="path815"
       inkscape:connector-curvature="0" />
  </g>
</svg>
